<svg xmlns="http://www.w3.org/2000/svg" xmlns:xlink="http://www.w3.org/1999/xlink" width="592" height="77.737" viewBox="0 0 592 77.737">
    <defs>
      <linearGradient id="linear-gradient" x1="-0.284" y1="-0.33" x2="0.891" y2="0.868" gradientUnits="objectBoundingBox">
        <stop offset="0" stop-color="#e1306c"/>
        <stop offset="0.406" stop-color="#f68c6a"/>
        <stop offset="0.699" stop-color="#e1306c"/>
        <stop offset="1" stop-color="#405de6"/>
      </linearGradient>
      <linearGradient id="linear-gradient-2" x1="0.5" x2="0.5" y2="0.996" gradientUnits="objectBoundingBox">
        <stop offset="0" stop-color="#41bce7"/>
        <stop offset="1" stop-color="#22a6dc"/>
      </linearGradient>
    </defs>
    <g id="Group_282" data-name="Group 282" transform="translate(-1558 -1052.144)">
      <g id="Group_260" data-name="Group 260" transform="translate(1558 1052.144)">
        <rect id="Rectangle_203" data-name="Rectangle 203" width="587.017" height="69.764" rx="15" transform="translate(4.983 7.973)" fill="#cbcbcb"/>
        <rect id="Rectangle_19" data-name="Rectangle 19" width="587.017" height="69.764" rx="15" transform="translate(0 0)" fill="#fff"/>
        <path id="Path_422" data-name="Path 422" d="M0,0V21.14" transform="translate(233.943 24.775)" fill="none" stroke="#000" stroke-width="1" opacity="0.15"/>
        <line id="Line_37" data-name="Line 37" y2="21.926" transform="translate(116.606 24.916)" fill="none" stroke="#000" stroke-width="1" opacity="0.15"/>
        <line id="Line_2" data-name="Line 2" y2="21.926" transform="translate(351.811 24.916)" fill="none" stroke="#000" stroke-width="1" opacity="0.15"/>
        <line id="Line_3" data-name="Line 3" y2="21.926" transform="translate(467.421 24.916)" fill="none" stroke="#000" stroke-width="1" opacity="0.15"/>
        <g id="_06b00a0afebf423" data-name="06b00a0afebf423" transform="translate(394.604 17.729)">
          <path id="Path_25" data-name="Path 25" d="M95.979,103.9a1.943,1.943,0,1,0,1.779,1.936A1.858,1.858,0,0,0,95.979,103.9Zm6.366,0a1.943,1.943,0,1,0,1.779,1.936A1.858,1.858,0,0,0,102.345,103.9Z" transform="translate(-83.875 -89.267)" fill="#7289da"/>
          <path id="Path_26" data-name="Path 26" d="M61.945,20H38.575A3.584,3.584,0,0,0,35,23.593V47.172a3.584,3.584,0,0,0,3.575,3.593H58.353l-.924-3.226,2.232,2.075,2.11,1.953,3.75,3.314V23.593A3.584,3.584,0,0,0,61.945,20ZM55.213,42.777s-.628-.75-1.151-1.413a5.5,5.5,0,0,0,3.157-2.075,9.979,9.979,0,0,1-2.006,1.029,11.479,11.479,0,0,1-2.529.75,12.217,12.217,0,0,1-4.517-.017A14.64,14.64,0,0,1,45.6,40.3a10.223,10.223,0,0,1-1.273-.593c-.052-.035-.1-.052-.157-.087a.241.241,0,0,1-.07-.052c-.314-.174-.488-.3-.488-.3a5.424,5.424,0,0,0,3.052,2.058c-.523.663-1.168,1.448-1.168,1.448a6.323,6.323,0,0,1-5.319-2.651,23.355,23.355,0,0,1,2.511-10.168,8.624,8.624,0,0,1,4.9-1.831l.174.209a11.766,11.766,0,0,0-4.587,2.285s.384-.209,1.029-.506a13.1,13.1,0,0,1,3.959-1.1,1.718,1.718,0,0,1,.3-.035,14.756,14.756,0,0,1,3.523-.035,14.216,14.216,0,0,1,5.25,1.674,11.607,11.607,0,0,0-4.343-2.215l.244-.279a8.624,8.624,0,0,1,4.9,1.831A23.356,23.356,0,0,1,60.55,40.126,6.375,6.375,0,0,1,55.213,42.777Z" transform="translate(-35 -20)" fill="#7289da"/>
        </g>
        <g id="g5" transform="translate(505.939 19.138)">
          <path id="path7" d="M43.659,4.884A5.585,5.585,0,0,0,39.73.955C36.242,0,22.289,0,22.289,0S8.335,0,4.847.918A5.7,5.7,0,0,0,.918,4.884C0,8.372,0,15.606,0,15.606s0,7.27.918,10.722a5.585,5.585,0,0,0,3.929,3.929c3.525.955,17.442.955,17.442.955s13.953,0,17.442-.918a5.585,5.585,0,0,0,3.929-3.929c.918-3.488.918-10.722.918-10.722s.037-7.27-.918-10.759Z" fill="red"/>
          <path id="polygon9" d="M40.192,20.977l-11.6-6.683V27.66Z" transform="translate(-10.743 -5.371)" fill="#fff"/>
        </g>
        <g id="Group_11" data-name="Group 11" transform="translate(277.632 17.729)">
          <path id="Path_27" data-name="Path 27" d="M15.531,0C9.048,0,7.152.007,6.783.037a7.7,7.7,0,0,0-3.06.769A6.2,6.2,0,0,0,1.938,2.113,6.664,6.664,0,0,0,.14,5.89,28.026,28.026,0,0,0,0,10.473c0,1.236,0,2.864,0,5.046C0,22,0,23.892.036,24.259a7.8,7.8,0,0,0,.74,3,6.542,6.542,0,0,0,4.24,3.464,11.018,11.018,0,0,0,2.255.3c.385.017,4.3.029,8.227.029s7.844,0,8.22-.024a10.61,10.61,0,0,0,2.336-.306,6.5,6.5,0,0,0,4.24-3.471,7.672,7.672,0,0,0,.732-2.942c.021-.268.03-4.533.03-8.793S31.046,7,31.025,6.729a7.586,7.586,0,0,0-.747-2.972,6.155,6.155,0,0,0-1.329-1.821A6.7,6.7,0,0,0,25.168.142,27.987,27.987,0,0,0,20.586,0Z" transform="translate(0.003)" fill="url(#linear-gradient)"/>
          <path id="Path_29" data-name="Path 29" d="M29.467,18c-3.114,0-3.5.014-4.728.069a8.414,8.414,0,0,0-2.783.533A5.865,5.865,0,0,0,18.6,21.955a8.375,8.375,0,0,0-.533,2.783C18.014,25.961,18,26.352,18,29.466s.014,3.5.069,4.727a8.426,8.426,0,0,0,.533,2.783,5.867,5.867,0,0,0,3.353,3.354,8.42,8.42,0,0,0,2.783.533c1.223.056,1.614.069,4.727.069s3.5-.014,4.727-.069a8.425,8.425,0,0,0,2.784-.533,5.875,5.875,0,0,0,3.353-3.354,8.5,8.5,0,0,0,.533-2.783c.055-1.223.069-1.613.069-4.727s-.014-3.5-.069-4.728a8.495,8.495,0,0,0-.533-2.783A5.866,5.866,0,0,0,36.976,18.6a8.44,8.44,0,0,0-2.785-.533C32.967,18.014,32.578,18,29.463,18Zm-1.029,2.066h1.029c3.061,0,3.424.011,4.633.066a6.348,6.348,0,0,1,2.129.395A3.8,3.8,0,0,1,38.4,22.7a6.335,6.335,0,0,1,.395,2.128c.055,1.209.067,1.572.067,4.632s-.012,3.423-.067,4.632a6.341,6.341,0,0,1-.395,2.128A3.8,3.8,0,0,1,36.229,38.4a6.324,6.324,0,0,1-2.129.4c-1.209.055-1.572.067-4.633.067s-3.424-.012-4.633-.067a6.36,6.36,0,0,1-2.129-.4,3.8,3.8,0,0,1-2.177-2.175,6.336,6.336,0,0,1-.395-2.128c-.055-1.209-.066-1.572-.066-4.634s.011-3.423.066-4.632a6.348,6.348,0,0,1,.395-2.129A3.8,3.8,0,0,1,22.7,20.523a6.334,6.334,0,0,1,2.129-.4c1.058-.048,1.468-.062,3.6-.064Zm7.149,1.9a1.376,1.376,0,1,0,1.376,1.375,1.376,1.376,0,0,0-1.376-1.375Zm-6.12,1.608a5.888,5.888,0,1,0,5.887,5.888,5.888,5.888,0,0,0-5.887-5.888Zm0,2.066a3.822,3.822,0,1,1-3.822,3.822A3.822,3.822,0,0,1,29.467,25.644Z" transform="translate(-13.939 -13.939)" fill="#fff"/>
        </g>
        <g id="_3787425_telegram_logo_messanger_social_social_media_icon" data-name="3787425_telegram_logo_messanger_social_social media_icon" transform="translate(43.852 20.929)">
          <ellipse id="Ellipse_56" data-name="Ellipse 56" cx="14.949" cy="15.448" rx="14.949" ry="15.448" transform="translate(0 0)" fill="url(#linear-gradient-2)"/>
          <g id="Group_258" data-name="Group 258" transform="translate(4.123 7.924)">
            <path id="Path_280" data-name="Path 280" d="M108.791,138.958l-2.742,13.83a1.015,1.015,0,0,1-1.44.5l-6.33-4.854-2.3-1.11-3.876-1.3s-.594-.21-.654-.672.672-.708.672-.708l15.408-6.042C107.525,138.593,108.791,138.034,108.791,138.958Z" transform="translate(-91.442 -138.426)" fill="#fff"/>
            <path id="Path_281" data-name="Path 281" d="M168.812,197.164s-.186-.018-.414-.744-1.4-4.566-1.4-4.566l9.306-5.91s.54-.324.516,0c0,0,.1.06-.192.324s-7.308,6.582-7.308,6.582" transform="translate(-162.466 -182.957)" fill="#d2e4f0"/>
            <path id="Path_282" data-name="Path 282" d="M200.21,306.4l-2.5,2.286a.431.431,0,0,1-.408.054l.48-4.242" transform="translate(-190.948 -294.535)" fill="#b5cfe4"/>
          </g>
        </g>
        <g id="_7024783_tiktok_social_media_icon" data-name="7024783_tiktok_social media_icon" transform="translate(161.455 20.929)">
          <rect id="Rectangle_215" data-name="Rectangle 215" width="29.899" height="30.896" rx="4" transform="translate(0 0)"/>
          <path id="Path_283" data-name="Path 283" d="M126.187,96.83V92.7a5.512,5.512,0,0,1-5.578-5.6V87.06h-4.177v16.1h0A3.308,3.308,0,1,1,114.087,100V95.732a7.591,7.591,0,0,0-.965-.062,7.492,7.492,0,1,0,7.492,7.492c0-.105,0-.209-.007-.313V94.92C122.531,96.68,126.187,96.83,126.187,96.83Z" transform="translate(-102.229 -84.246)" fill="#00f6ef"/>
          <path id="Path_284" data-name="Path 284" d="M143.167,110.882v-4.137a5.511,5.511,0,0,1-5.578-5.6v-.035h-4.177v16.1h0a3.308,3.308,0,1,1-2.344-3.166v-4.265a7.591,7.591,0,0,0-.967-.059,7.492,7.492,0,1,0,7.495,7.49c0-.105,0-.209-.007-.313V108.97C139.511,110.73,143.167,110.882,143.167,110.882Z" transform="translate(-117.979 -97.278)" fill="#fff"/>
          <path id="Path_285" data-name="Path 285" d="M313.82,101.11a5.445,5.445,0,0,0,2.5,3.815,6.265,6.265,0,0,1-1.377-3.78v-.035Z" transform="translate(-295.337 -97.278)" fill="#ff004f"/>
          <path id="Path_286" data-name="Path 286" d="M170.2,181.182v-4.137a7.7,7.7,0,0,1-1.232-.145v3.256s-3.656-.15-5.578-1.91v7.927c0,.1.007.208.007.313a7.493,7.493,0,0,1-11.644,6.237,7.492,7.492,0,0,0,12.874-5.212c0-.105,0-.209-.007-.313V179.27C166.54,181.029,170.2,181.182,170.2,181.182Z" transform="translate(-145.008 -167.577)" fill="#ff004f"/>
          <path id="Path_287" data-name="Path 287" d="M167.619,223.3a3.31,3.31,0,0,0-2.4,6.147,3.31,3.31,0,0,1,3.635-5.122v-4.265a7.578,7.578,0,0,0-.967-.059c-.089,0-.177,0-.265.005Z" transform="translate(-155.761 -207.555)" fill="#ff004f"/>
        </g>
      </g>
    </g>
  </svg>
  